# xmcd
#
# Track frame offsets:
#	150
#	9425
#	27019
#	34145
#	51196
#	65879
#	76130
#	115585
#	141223
#	149630
#	154858
#	159094
#	164431
#	175889
#	191565
#	204161
#	226831
#
# Disc length: 3279 seconds
#
# Revision: 1
# Processed by: cddbd v1.5.2PL0 Copyright (c) Steve Scherf et al.
# Submitted via: audiograbber 1.83.01
#
DISCID=d90ccd11
DTITLE=Hank Williams Jr. - Hank Live
DYEAR=1987
DGENRE=Country
TTITLE0=Intro
TTITLE1=My Name Is Bocephus
TTITLE2=Workin' For MCA
TTITLE3=I Really Like Girls
TTITLE4=If You Don't Like Hank Williams
TTITLE5=Sweet Home Alabama
TTITLE6=La Grange
TTITLE7=Medley- Trouble In Mind,Short Haired Woman
TTITLE8=The Conversation
TTITLE9=Man Of Steel
TTITLE10=I'm For Love
TTITLE11=If Heaven Ain't A Lot Like Dixie
TTITLE12=All My Rowdy Friends (Have Settled Down)
TTITLE13=House Of The Rising Sun
TTITLE14=The Ride
TTITLE15=A Country Boy Can Survive
TTITLE16=Medley- Family Tradition,Hey, Good Lookin'
EXTD=
EXTT0=
EXTT1=
EXTT2=
EXTT3=
EXTT4=
EXTT5=
EXTT6=
EXTT7=
EXTT8=
EXTT9=
EXTT10=
EXTT11=
EXTT12=
EXTT13=
EXTT14=
EXTT15=
EXTT16=
PLAYORDER=
